<svg width="18" height="18" viewBox="0 0 18 18" fill="none" xmlns="http://www.w3.org/2000/svg">
<path fill-rule="evenodd" clip-rule="evenodd" d="M9.8252 1.02501C9.8252 0.569377 9.45583 0.200012 9.0002 0.200012C8.54456 0.200012 8.1752 0.569377 8.1752 1.02501V8.17501H1.0252C0.56956 8.17501 0.200195 8.54438 0.200195 9.00001C0.200195 9.45565 0.56956 9.82501 1.0252 9.82501H8.1752V16.975C8.1752 17.4306 8.54456 17.8 9.0002 17.8C9.45583 17.8 9.8252 17.4306 9.8252 16.975V9.82501H16.9752C17.4308 9.82501 17.8002 9.45565 17.8002 9.00001C17.8002 8.54438 17.4308 8.17501 16.9752 8.17501H9.8252V1.02501Z" fill="white"/>
</svg>
