<svg width="29" height="29" viewBox="0 0 29 29" fill="none" xmlns="http://www.w3.org/2000/svg">
<path d="M2.0249 8.36897V5.28983C2.0249 4.47319 2.34931 3.69 2.92676 3.11255C3.50421 2.5351 4.2874 2.21069 5.10404 2.21069H8.18318M2.0249 20.6855V23.7646C2.0249 24.5813 2.34931 25.3645 2.92676 25.9419C3.50421 26.5194 4.2874 26.8438 5.10404 26.8438H8.18318M20.4997 2.21069H23.5789C24.3955 2.21069 25.1787 2.5351 25.7561 3.11255C26.3336 3.69 26.658 4.47319 26.658 5.28983V8.36897M20.4997 26.8438H23.5789C24.3955 26.8438 25.1787 26.5194 25.7561 25.9419C26.3336 25.3645 26.658 24.5813 26.658 23.7646V20.6855M6.64361 14.5272H22.0393" stroke="white" stroke-width="3.07914" stroke-linecap="round" stroke-linejoin="round"/>
</svg>
