<svg width="21" height="25" viewBox="0 0 21 25" fill="none" xmlns="http://www.w3.org/2000/svg">
<path fill-rule="evenodd" clip-rule="evenodd" d="M15.8028 4.10304V4.36147C16.8908 4.46106 17.9697 4.59203 19.0387 4.75347C19.4345 4.81325 19.8289 4.8772 20.2219 4.94528C20.687 5.02584 20.9987 5.46818 20.9182 5.93326C20.8376 6.39835 20.3953 6.71006 19.9302 6.6295C19.8509 6.61576 19.7715 6.60219 19.6921 6.5888L18.5463 21.4831C18.4093 23.2642 16.9242 24.6395 15.1378 24.6395H6.21199C4.42565 24.6395 2.94046 23.2642 2.80346 21.4831L1.65774 6.5888C1.5783 6.60219 1.49893 6.61576 1.41961 6.6295C0.954525 6.71006 0.512189 6.39835 0.431626 5.93326C0.351063 5.46818 0.662779 5.02584 1.12786 4.94528C1.52089 4.8772 1.91532 4.81325 2.31112 4.75347C3.38012 4.59203 4.45905 4.46106 5.54699 4.36147V4.10304C5.54699 2.32027 6.92871 0.798381 8.75528 0.739951C9.39268 0.719561 10.0326 0.70929 10.6749 0.70929C11.3172 0.70929 11.9571 0.719561 12.5945 0.739951C14.4211 0.798381 15.8028 2.32027 15.8028 4.10304ZM8.80993 2.44838C9.42912 2.42857 10.0508 2.41859 10.6749 2.41859C11.299 2.41859 11.9207 2.42857 12.5399 2.44838C13.3998 2.47589 14.0935 3.19796 14.0935 4.10304V4.23139C12.9627 4.16272 11.8228 4.12789 10.6749 4.12789C9.527 4.12789 8.38713 4.16272 7.25629 4.23139V4.10304C7.25629 3.19796 7.95002 2.47589 8.80993 2.44838ZM8.40563 9.22295C8.38749 8.75129 7.99043 8.38364 7.51876 8.40178C7.0471 8.41992 6.67945 8.81699 6.69759 9.28865L7.09204 19.5445C7.11019 20.0161 7.50725 20.3838 7.97891 20.3656C8.45057 20.3475 8.81822 19.9504 8.80008 19.4788L8.40563 9.22295ZM14.6512 9.28865C14.6693 8.81699 14.3016 8.41992 13.83 8.40178C13.3583 8.38364 12.9613 8.75129 12.9431 9.22295L12.5487 19.4788C12.5305 19.9504 12.8982 20.3475 13.3698 20.3656C13.8415 20.3838 14.2386 20.0161 14.2567 19.5445L14.6512 9.28865Z" fill="#6938EF"/>
</svg>
