<svg width="20" height="23" viewBox="0 0 20 23" fill="none" xmlns="http://www.w3.org/2000/svg">
<path d="M16 7.50177C16 5.91047 15.3679 4.38435 14.2426 3.25913C13.1174 2.13391 11.5913 1.50177 10 1.50177C8.4087 1.50177 6.88258 2.13391 5.75736 3.25913C4.63214 4.38435 4 5.91047 4 7.50177C4 14.5018 1 16.5018 1 16.5018H19C19 16.5018 16 14.5018 16 7.50177Z" stroke="#252C58" stroke-width="1.2" stroke-linecap="round" stroke-linejoin="round"/>
<path d="M11.73 20.5018C11.5542 20.8048 11.3019 21.0564 10.9982 21.2313C10.6946 21.4062 10.3504 21.4982 10 21.4982C9.64964 21.4982 9.30541 21.4062 9.00179 21.2313C8.69818 21.0564 8.44583 20.8048 8.27002 20.5018" stroke="#252C58" stroke-width="1.2" stroke-linecap="round" stroke-linejoin="round"/>
</svg>
