<svg width="20" height="25" viewBox="0 0 20 25" fill="none" xmlns="http://www.w3.org/2000/svg">
<path d="M16 9.50177C16 7.91047 15.3679 6.38435 14.2426 5.25913C13.1174 4.13391 11.5913 3.50177 10 3.50177C8.4087 3.50177 6.88258 4.13391 5.75736 5.25913C4.63214 6.38435 4 7.91047 4 9.50177C4 16.5018 1 18.5018 1 18.5018H19C19 18.5018 16 16.5018 16 9.50177Z" stroke="#252C58" stroke-width="1.2" stroke-linecap="round" stroke-linejoin="round"/>
<path d="M11.73 22.5018C11.5542 22.8048 11.3019 23.0564 10.9982 23.2313C10.6946 23.4062 10.3504 23.4982 10 23.4982C9.64964 23.4982 9.30541 23.4062 9.00179 23.2313C8.69818 23.0564 8.44583 22.8048 8.27002 22.5018" stroke="#252C58" stroke-width="1.2" stroke-linecap="round" stroke-linejoin="round"/>
<circle cx="14.5" cy="4.00177" r="3.5" fill="#6938EF"/>
</svg>
