<svg width="25" height="24" viewBox="0 0 25 24" fill="none" xmlns="http://www.w3.org/2000/svg">
<path fill-rule="evenodd" clip-rule="evenodd" d="M6.77865 17.0303L8.50407 12.7168C8.77918 12.029 9.19112 11.4043 9.71491 10.8805L19.1765 1.41956C20.3093 0.286738 22.146 0.286742 23.2788 1.41957C24.4116 2.55239 24.4116 4.38907 23.2788 5.52189L13.8172 14.9829C13.2934 15.5066 12.6687 15.9186 11.981 16.1937L7.6674 17.9191C7.10927 18.1423 6.5554 17.5885 6.77865 17.0303ZM2.76796 5.86277C2.76796 4.91875 3.53324 4.15347 4.47726 4.15347H13.0238C13.5902 4.15347 14.0494 3.6943 14.0494 3.12789C14.0494 2.56148 13.5902 2.10231 13.0238 2.10231H4.47726C2.40041 2.10231 0.716797 3.78593 0.716797 5.86277V20.2209C0.716797 22.2978 2.40041 23.9814 4.47726 23.9814H18.8354C20.9122 23.9814 22.5959 22.2978 22.5959 20.2209V11.6744C22.5959 11.108 22.1367 10.6488 21.5703 10.6488C21.0039 10.6488 20.5447 11.108 20.5447 11.6744V20.2209C20.5447 21.1649 19.7794 21.9302 18.8354 21.9302H4.47726C3.53324 21.9302 2.76796 21.1649 2.76796 20.2209V5.86277Z" fill="#101828"/>
</svg>
