<svg width="59" height="53" viewBox="0 0 59 53" fill="none" xmlns="http://www.w3.org/2000/svg">
<path d="M29.2871 52.0217V51.3566C29.2871 40.9562 29.2865 30.5556 29.2903 20.1552C29.2905 19.8061 29.2905 19.5341 28.9192 19.3586C23.6073 16.847 18.8208 13.2745 13.8555 10.0651C9.35685 7.15733 4.89413 4.1812 0.415407 1.2356C0.312649 1.1682 0.20669 1.10734 -7.24792e-05 0.980652C0.266249 2.41063 0.510345 3.73415 0.759241 5.05628C1.30503 7.95568 1.87323 10.8501 2.38489 13.7569C2.49832 14.401 2.77193 14.7523 3.26581 15.0598C10.0936 19.3103 16.9091 23.5851 23.7369 27.8358C24.1831 28.1135 24.4386 28.4044 24.2485 29.0909C17.3335 24.9554 10.4271 20.8249 3.41106 16.6289C3.66529 18.0482 3.89587 19.3545 4.13375 20.6589C4.43456 22.3086 4.76328 23.9523 5.03191 25.6083C5.10658 26.0682 5.29947 26.3019 5.64153 26.5093C11.6609 30.1605 17.6716 33.8295 23.6979 37.4664C24.2067 37.7735 24.4302 38.1032 24.251 38.7955C18.0865 35.1084 11.9317 31.4273 5.69362 27.6962C5.72437 27.9325 5.73593 28.0909 5.76651 28.2446C6.26235 30.7425 6.77116 33.2373 7.24869 35.7394C7.33652 36.1996 7.52621 36.4773 7.88498 36.7134C13.1783 40.1983 18.4665 43.6928 23.7454 47.205C24.0464 47.4054 24.2268 47.819 24.5131 48.0605C26.0559 49.3604 27.6143 50.6377 29.2871 52.0217Z" fill="#6938EF"/>
<path d="M58.7971 0.978394C57.2953 1.96449 55.8779 2.89408 54.4613 3.82546C47.9156 8.12927 41.3849 12.4612 34.8146 16.7177C33.269 17.7188 31.5937 18.474 29.9698 19.3225C29.6603 19.4842 29.5238 19.6642 29.5243 20.0711C29.5357 30.5396 29.5332 41.0084 29.5341 51.4768C29.5341 51.6057 29.5471 51.734 29.5602 51.9822C30.007 51.6172 30.3908 51.3071 30.7716 50.9921C31.8403 50.1081 32.9504 49.2784 33.9678 48.3268C37.2654 45.2421 41.2146 43.3258 44.8055 40.7686C46.8257 39.3297 48.9278 38.0343 50.9789 36.6477C51.2062 36.4941 51.4418 36.1941 51.5003 35.9168C52.0623 33.2515 52.5873 30.5765 53.1204 27.9037C53.1279 27.8657 53.1046 27.8201 53.0827 27.718C46.9158 31.4066 40.7622 35.0867 34.5888 38.7789C34.3822 38.1237 34.5856 37.7879 35.0887 37.484C41.1314 33.8326 47.1647 30.162 53.1885 26.472C53.4419 26.3167 53.687 25.9468 53.7484 25.6316C54.2862 22.8682 54.782 20.0945 55.2874 17.3229C55.3223 17.1316 55.3333 16.9347 55.3657 16.6499C48.3965 20.8185 41.4959 24.9454 34.5766 29.0843C34.4121 28.4769 34.5616 28.1521 35.0343 27.8581C41.8289 23.6322 48.6067 19.3732 55.4044 15.1533C56.0226 14.7697 56.3282 14.3198 56.4676 13.5423C57.178 9.58086 57.9464 5.63231 58.6931 1.67881C58.7293 1.48651 58.7512 1.29064 58.7971 0.978394Z" fill="#6938EF"/>
<path d="M25.6256 12.6743C25.1845 14.1064 25.9454 15.1042 27.2351 15.8655C27.9247 16.2725 28.5432 16.8334 29.1786 17.3478C29.4232 17.5459 29.6035 17.5752 29.8665 17.3664C30.9332 16.5199 32.0262 15.7144 33.087 14.8594C33.2634 14.7172 33.4214 14.4066 33.4282 14.1681C33.4625 12.9572 33.462 11.7435 33.4289 10.5324C33.4223 10.2937 33.2742 9.97212 33.0993 9.84108C32.0461 9.05264 30.9591 8.3207 29.8997 7.54217C29.6145 7.33262 29.4145 7.36414 29.1438 7.56239C28.0998 8.32625 27.0297 9.04629 25.9961 9.82621C25.8086 9.96776 25.6647 10.3058 25.642 10.5681C25.5901 11.1686 25.6256 11.7786 25.6256 12.6743Z" fill="#6938EF"/>
</svg>
